<svg width="12" height="22" viewBox="0 0 12 22" fill="none" xmlns="http://www.w3.org/2000/svg">
<g style="mix-blend-mode:overlay">
<path d="M9.78094 0.558618C9.50412 0.0372721 8.8713 -0.153146 8.3675 0.133308C7.86369 0.419762 7.67968 1.07461 7.9565 1.59596C9.41944 4.35121 11.53 11.9103 7.93412 19.5012C7.6811 20.0353 7.89442 20.6806 8.41058 20.9424C8.92675 21.2043 9.5503 20.9835 9.80332 20.4494C13.7773 12.0602 11.4721 3.74367 9.78094 0.558618Z" fill="#E7E7E9"/>
</g>
<g style="mix-blend-mode:overlay">
<path d="M5.82313 2.451C5.56339 1.92032 4.93711 1.70802 4.42429 1.9768C3.91148 2.24559 3.70631 2.89367 3.96605 3.42435C5.1072 5.75582 6.71783 11.933 3.96363 17.6331C3.70655 18.1652 3.91495 18.8122 4.42911 19.0782C4.94327 19.3442 5.56848 19.1286 5.82556 18.5965C8.97581 12.0766 7.14217 5.14594 5.82313 2.451Z" fill="#E7E7E9"/>
</g>
<g style="mix-blend-mode:overlay">
<path d="M2.1257 4.78611C1.85797 4.2597 1.22855 4.05757 0.719862 4.33462C0.211171 4.61167 0.0158355 5.263 0.283567 5.78941C0.694047 6.59647 1.2211 8.1133 1.37425 9.90869C1.52661 11.6947 1.30423 13.69 0.298827 15.5281C0.01566 16.0458 0.191651 16.703 0.691913 16.996C1.19218 17.289 1.82727 17.1069 2.11044 16.5892C3.37597 14.2756 3.62671 11.8157 3.44789 9.71927C3.26986 7.63223 2.66144 5.83946 2.1257 4.78611Z" fill="#E7E7E9"/>
</g>
</svg>
